<svg width="179" height="168" viewBox="0 0 179 168" fill="none" xmlns="http://www.w3.org/2000/svg">
<path d="M80.9446 95.4455C82.3128 95.4444 84.5569 95.3286 87.3411 94.9457C90.1253 94.5629 93.4451 93.8722 96.9398 92.8638C100.429 91.8597 104.094 90.528 107.593 89.0927C111.099 87.6784 114.4 86.0748 117.241 84.5885C130.369 77.6655 142.168 68.0734 150.792 56.094C159.371 44.1584 164.751 29.7921 165.45 15.0875C165.594 12.7888 165.495 9.6921 165.479 7.16999C165.496 6.53867 165.478 5.94271 165.487 5.40584C165.496 4.86895 165.528 4.38553 165.586 3.97106C165.704 3.15758 165.942 2.64235 166.337 2.61686C167.164 2.56573 168.008 3.84468 168.757 6.23712C169.389 8.63848 169.924 12.1731 169.645 16.4294C169.087 26.7429 166.246 36.8399 161.773 46.0513C157.312 55.2894 151.142 63.6112 143.968 70.7928C133.451 81.3325 120.493 89.2045 106.697 94.5308C99.8072 97.2052 92.5744 99.3089 85.0289 100.006C81.2652 100.343 77.431 100.284 73.6343 99.7363C69.8601 99.1718 66.0697 98.0368 62.6092 96.2636C59.4989 94.6849 56.6558 92.5951 54.1846 90.1093C51.7189 87.6193 49.6349 84.6994 48.199 81.422C46.7462 78.1572 46.0867 74.5048 46.2516 70.8914C46.4079 67.2667 47.5734 63.6917 49.4298 60.6099C50.3721 59.0761 51.4698 57.6543 52.6864 56.3546C53.9072 55.0606 55.254 53.9098 56.6618 52.8631C59.5042 50.7934 62.6557 49.2143 65.9387 48.1011C72.5117 45.8957 79.7369 45.4406 86.5528 47.3529C88.1567 47.8272 89.6779 48.3905 91.1754 49.0511C92.6617 49.7203 94.1104 50.4797 95.5157 51.3338C96.9042 52.2006 98.245 53.1563 99.5229 54.2039C100.788 55.2698 101.975 56.4305 103.079 57.6803C105.254 60.1954 107.052 63.146 108.143 66.3402C109.275 69.5203 109.766 72.9028 109.734 76.2128C109.658 82.8764 107.682 89.1755 105.073 94.9641C103.749 97.8634 102.258 100.669 100.605 103.341L98.0824 107.306L96.8121 109.282L95.4316 111.183C82.8866 128.829 65.8627 142.982 46.8245 152.916C42.3643 155.299 36.9136 158.078 31.7221 160.078C30.6629 160.534 29.3893 160.941 28.0271 161.406C26.6664 161.86 25.2099 162.352 23.7591 162.84C20.8218 163.709 17.8559 164.459 15.6472 165.007C13.7112 165.367 11.7048 165.727 9.83822 166.202C9.30189 166.334 8.78666 166.459 8.30242 166.577C7.81104 166.675 7.3379 166.75 6.89436 166.829C5.99878 166.977 5.20312 167.092 4.50177 167.181C3.09906 167.359 2.06506 167.416 1.38988 167.353C0.0451507 167.221 0.131489 166.599 1.45018 165.47C2.02735 164.972 1.22829 164.569 3.24792 163.969C3.33235 163.941 3.49984 163.894 3.57303 163.874C9.63837 161.92 15.9465 160.789 22.1982 158.941C52.5759 149.239 79.483 128.638 96.1519 101.47C97.4923 99.4236 98.6367 97.3042 99.7316 95.1427C100.825 92.9911 101.8 90.7877 102.604 88.5457C103.424 86.3007 104.103 84.0211 104.529 81.7114C104.95 79.406 105.218 77.0744 105.115 74.7766C105.022 72.4803 104.635 70.2287 103.939 68.07L103.334 66.4872C103.136 65.9567 102.862 65.466 102.627 64.9555C102.084 63.9698 101.511 62.99 100.822 62.0895C99.4873 60.2545 97.8591 58.6151 96.0486 57.2018C94.2451 55.7744 92.2564 54.5577 90.1588 53.5824C89.0182 53.0316 87.8174 52.5882 86.6266 52.1814C85.4388 51.8253 84.237 51.4975 83.0062 51.3064C80.5415 50.8736 78.0161 50.7693 75.4648 50.8877L75.5507 50.8845C72.8926 51.0837 70.2599 51.6435 67.7411 52.5057C65.2152 53.3469 62.8216 54.5384 60.6178 55.9574C58.5433 57.314 56.6687 58.9698 55.1247 60.8527C53.6131 62.7551 52.397 64.8847 51.7507 67.1839C51.386 68.3253 51.2159 69.5137 51.0965 70.6992C51.0208 71.8958 51.065 73.0989 51.2063 74.2904C51.5086 76.6761 52.2955 79.0135 53.4692 81.1732C55.804 85.511 59.6363 89.0609 63.9306 91.4931C66.0898 92.7134 68.3704 93.6387 70.7273 94.2678C73.1139 94.9011 75.5545 95.2903 78.0039 95.4344C78.3859 95.4723 78.8466 95.4508 79.3454 95.4447C79.8288 95.4766 80.3727 95.4717 80.9446 95.4455Z" fill="white"/>
<path d="M172.73 4.09786C173.092 4.42476 174.283 5.66151 175.009 6.48156C176.721 8.34891 178.157 10.54 178.761 13.0331C178.853 13.423 179.115 14.0377 177.633 14.6367C176.093 15.2627 175.057 15.2949 174.881 14.7573C174.428 13.4571 174.029 12.0187 172.965 11.0562C171.443 9.6728 170.22 8.07974 168.585 6.88701C168.317 6.68374 168.037 6.48898 167.762 6.29983L167.588 6.17506L167.541 6.14848L167.458 6.09667C167.352 6.02663 167.212 5.94689 167.087 6.01501C167.01 6.06462 166.976 6.16055 166.964 6.24936C166.958 6.28884 166.962 6.33956 166.966 6.3804L166.977 6.44238C166.98 6.45786 166.986 6.45359 166.983 6.47332L166.634 8.00914C166.432 8.92157 166.216 9.82701 165.908 10.7046C165.381 12.2158 164.475 13.5987 163.818 15.0667C163.664 15.4125 163.798 15.939 163.644 16.32C163.514 16.6389 163.319 17.1751 163.079 17.4537C162.977 17.5752 162.855 17.6941 162.864 17.8462C162.906 18.5562 162.306 18.5332 160.655 17.7407C160.293 17.5646 159.775 17.4524 159.567 17.2123C159.558 17.2011 159.536 17.1828 159.527 17.1716C158.639 16.3592 159.285 16.0566 159.417 15.577C160.081 13.2199 160.856 10.9032 161.588 8.56561L162.292 6.42536C162.408 6.0642 162.518 5.70728 162.614 5.34338L162.809 4.6212C162.901 4.2869 162.989 3.94697 163.1 3.61542C163.325 2.89734 163.573 2.09181 164.189 1.74984L164.178 1.75835C164.442 1.48819 164.746 1.24887 165.089 1.06013C165.42 0.889763 165.78 0.758746 166.152 0.72489C166.862 0.647445 167.585 0.762978 168.305 1.04903C168.665 1.17444 169.015 1.40415 169.362 1.61838C169.7 1.83124 170.086 2.06085 170.385 2.25836C171.155 2.79784 171.867 3.35445 172.479 3.98754C172.534 4.02537 172.653 4.03193 172.73 4.09786Z" fill="white"/>
</svg>
