<svg width="150" height="120" viewBox="0 0 150 120" fill="none" xmlns="http://www.w3.org/2000/svg">
<path d="M104.656 72.6666C103.162 74.3615 99.556 78.0439 94.8326 81.4275C90.1424 84.8535 84.358 87.8942 79.6231 89.7298C76.8936 90.813 74.0925 91.7292 71.2407 92.4531C69.8184 92.8167 68.3942 93.0908 66.9673 93.4079C65.5401 93.7071 64.0998 93.9027 62.6714 94.1481C56.9156 94.9948 51.1227 95.2831 45.3713 95.1655C33.8542 94.9235 22.5759 93.1101 11.5358 90.8688C8.08022 90.1719 2.21108 89.0676 2.66454 87.3053C3.13439 85.471 7.25611 85.1359 13.2403 86.2592C20.4876 87.6172 27.747 88.8747 35.0381 89.5974C42.3192 90.3598 49.6549 90.483 56.8243 89.703C62.0516 89.1114 67.256 88.1188 72.2245 86.651C77.185 85.1439 81.9862 83.056 86.4607 80.4411C90.9314 77.8155 95.0935 74.6624 98.7288 71.0116C102.357 67.3574 105.458 63.1876 107.686 58.6134C109.714 54.5202 110.985 50.0955 111.47 45.5908C111.578 44.4451 111.676 43.3571 111.639 42.2755C111.612 41.1901 111.525 40.1024 111.341 39.049C110.967 36.9567 110.257 34.954 109.107 33.4696C107.993 31.9665 106.432 31.0142 104.674 30.7578C102.915 30.4834 100.928 30.9164 99.1193 31.8151C98.2149 32.2645 97.3525 32.8312 96.567 33.4788C96.1726 33.8062 95.7999 34.1438 95.4535 34.5383C95.1105 34.9255 94.7275 35.2849 94.41 35.6931C93.1078 37.3193 92.1921 39.2527 91.5614 41.2768C89.2628 48.9563 91.9762 58.2206 98.1229 63.1002C101.226 65.6074 105.08 67.1668 109.1 67.7764C111.114 68.1099 113.168 68.1163 115.216 68.0045C117.263 67.8749 119.287 67.459 121.261 66.9224C124.665 65.8929 127.833 64.3702 130.657 62.1525C133.467 59.9637 135.983 57.308 137.99 54.269C140.023 51.2509 141.643 47.9047 142.769 44.3862C143.366 42.6388 143.772 40.8274 144.138 39.006C144.439 37.1717 144.694 35.342 144.762 33.4768C144.868 31.7184 144.74 29.7785 144.53 27.8082C144.302 25.8382 143.954 23.8386 143.624 21.9353C143.119 18.7706 141.65 13.5978 140.621 10.5482C140.199 9.2311 139.725 7.85415 139.126 6.63042C137.722 3.82892 136.87 2.05145 136.784 1.03541C136.695 0.0266123 137.338 -0.209314 138.753 0.265885C139.378 0.481955 139.652 -0.283709 140.65 0.978117C140.687 1.03109 140.772 1.13323 140.809 1.1862C144.068 4.95529 145.449 9.86471 146.845 14.6663C148.58 20.586 149.558 26.7943 149.416 33.0479C149.284 39.3157 147.93 45.5808 145.351 51.3452C142.778 57.0951 138.93 62.3919 133.883 66.3667C131.38 68.3554 128.53 70.011 125.523 71.1754C122.52 72.3505 119.353 73.0846 116.144 73.3644C114.177 73.5676 112.186 73.5025 110.205 73.362C108.232 73.128 106.258 72.8045 104.342 72.2074C100.518 71.0524 96.8433 69.1523 93.8557 66.363C90.825 63.5711 88.5851 60.0455 87.2069 56.2543C85.8641 52.4443 85.3293 48.3699 85.687 44.3015C85.9374 42.0884 86.3195 39.8402 87.1808 37.7037C87.5375 36.6137 88.1251 35.5976 88.6769 34.5823C88.949 34.064 89.3374 33.6185 89.6712 33.1383C90.0268 32.6684 90.3534 32.1847 90.7855 31.7777L90.7295 31.8398C92.2806 29.9502 94.2379 28.2885 96.4635 27.1085C98.693 25.9392 101.264 25.1532 104.025 25.2378C106.633 25.3291 109.356 26.2997 111.379 28.0379C113.465 29.7532 114.793 32.0223 115.658 34.2762C116.481 36.5453 116.921 38.8548 117.034 41.1426C117.112 42.2879 117.083 43.4354 117.028 44.562C116.926 45.6573 116.86 46.7518 116.675 47.8346C116.381 50.0092 115.892 52.145 115.255 54.2194C114.64 56.3041 113.834 58.3068 112.925 60.2437C111.108 64.1173 108.764 67.6259 106.16 70.7637C105.776 71.2378 105.29 71.965 104.656 72.6666Z" fill="white"/>
<path d="M28.0233 98.4741C29.6263 99.189 35.279 101.742 38.9388 103.281C47.4198 106.863 55.8966 110.417 64.179 114.438C65.4718 115.059 67.7246 115.993 67.0001 117.653C66.2448 119.379 64.3073 119.782 62.0133 118.767C56.4593 116.305 50.9888 113.554 45.293 111.503C36.9607 108.505 28.953 104.766 20.8398 101.287C17.1903 99.7264 13.5681 98.1083 9.95286 96.4757C9.04084 96.0615 8.16541 95.6824 7.19508 95.2228C6.23543 94.7593 5.22433 94.2361 4.22694 93.5155C3.73187 93.1568 3.23565 92.7445 2.77753 92.2704C2.28665 91.772 1.85903 91.2148 1.50915 90.6058C0.816626 89.3912 0.30132 87.9148 0.52879 86.143C0.615283 85.4924 0.827157 84.8392 1.14423 84.2446C1.5337 83.516 2.08362 82.9165 2.6545 82.4599C3.22539 82.0033 3.81344 81.6789 4.37443 81.4304C5.49297 80.9407 6.53072 80.6963 7.47282 80.5042L12.7157 79.4678C16.185 78.7882 19.6653 78.1227 23.1513 77.5574C29.491 76.5263 35.894 75.9418 42.2513 75.0609C43.7487 74.8569 45.4915 74.2284 47.1314 73.9856C48.4855 73.7847 50.7466 73.4283 52.1072 73.3634C52.6979 73.3329 53.3069 73.32 53.8698 73.161C56.424 72.4292 57.2167 72.9643 56.679 75.1477C56.5567 75.6305 56.8803 76.1828 56.3048 76.5929C56.28 76.6077 56.2343 76.6481 56.2096 76.663C54.5079 78.2153 52.4526 77.9688 50.4853 78.3225C40.8311 80.0622 31.1562 81.6769 21.4932 83.3415L12.5901 84.843L10.369 85.2273C9.64074 85.361 8.85146 85.4925 8.20206 85.6282C7.54198 85.7677 6.94325 85.9275 6.4924 86.1306C6.03432 86.3303 5.77403 86.5617 5.71573 86.6848C5.69133 86.7175 5.69552 86.7461 5.68904 86.7785C5.702 86.8822 5.73173 86.9317 5.81254 87.1916C5.88915 87.423 6.02522 87.7534 6.17272 88.1158L6.16891 88.1051C6.30916 88.2957 6.46314 88.4573 6.65294 88.6181C6.86103 88.7965 7.0977 88.9706 7.35228 89.1444C7.87556 89.4809 8.49185 89.8083 9.18014 90.152C9.82499 90.4752 10.5666 90.7998 11.3338 91.1455C12.0938 91.4877 12.8499 91.8192 13.6098 92.1615C15.1366 92.8314 16.6706 93.5048 18.1901 94.1713C21.2364 95.5077 24.2468 96.845 27.1067 98.1818C27.3487 98.2698 27.694 98.327 28.0233 98.4741Z" fill="white"/>
</svg>
