<svg width="3651" height="50" viewBox="0 0 3651 50" fill="none" xmlns="http://www.w3.org/2000/svg">
<g clip-path="url(#clip0_1_687)">
<rect width="3651" height="50" rx="14.0331" fill="black"/>
<path d="M40.4669 0L77.1818 0L40.4669 121.62H0L40.4669 0Z" fill="#F7EB0E"/>
<path d="M121.214 0L159.041 0L121.214 121.62H79.5208L121.214 0Z" fill="#F7EB0E"/>
<path d="M201.847 0L238.562 0L201.847 121.62H161.38L201.847 0Z" fill="#F7EB0E"/>
<path d="M282.594 0L320.422 0L282.594 121.62H240.901L282.594 0Z" fill="#F7EB0E"/>
<path d="M363.227 0L399.942 0L363.227 121.62H322.76L363.227 0Z" fill="#F7EB0E"/>
<path d="M442.748 0L479.463 0L442.748 121.62H402.281L442.748 0Z" fill="#F7EB0E"/>
<path d="M523.495 0L561.322 0L523.495 121.62H481.802L523.495 0Z" fill="#F7EB0E"/>
<path d="M604.128 0L640.843 0L604.128 121.62H563.661L604.128 0Z" fill="#F7EB0E"/>
<path d="M684.875 0L722.702 0L684.875 121.62H643.182L684.875 0Z" fill="#F7EB0E"/>
<path d="M765.508 0L802.223 0L765.508 121.62H725.041L765.508 0Z" fill="#F7EB0E"/>
<path d="M845.029 0L881.744 0L845.029 121.62H804.562L845.029 0Z" fill="#F7EB0E"/>
<path d="M925.776 0L963.603 0L925.776 121.62H884.083L925.776 0Z" fill="#F7EB0E"/>
<path d="M1006.41 0L1043.12 0L1006.41 121.62H965.942L1006.41 0Z" fill="#F7EB0E"/>
<path d="M1087.16 0L1124.98 0L1087.16 121.62H1045.46L1087.16 0Z" fill="#F7EB0E"/>
<path d="M1167.79 0L1204.5 0L1167.79 121.62H1127.32L1167.79 0Z" fill="#F7EB0E"/>
<path d="M1247.31 0L1284.02 0L1247.31 121.62H1206.84L1247.31 0Z" fill="#F7EB0E"/>
<path d="M1328.06 0L1365.88 0L1328.06 121.62H1286.36L1328.06 0Z" fill="#F7EB0E"/>
<path d="M1408.69 0L1445.4 0L1408.69 121.62H1368.22L1408.69 0Z" fill="#F7EB0E"/>
<path d="M1489.44 0L1527.26 0L1489.44 121.62H1447.74L1489.44 0Z" fill="#F7EB0E"/>
<path d="M1570.07 0L1606.78 0L1570.07 121.62H1529.6L1570.07 0Z" fill="#F7EB0E"/>
<path d="M1649.59 0L1686.31 0L1649.59 121.62H1609.12L1649.59 0Z" fill="#F7EB0E"/>
<path d="M1730.34 0L1768.16 0L1730.34 121.62H1688.64L1730.34 0Z" fill="#F7EB0E"/>
<path d="M1810.97 0L1847.69 0L1810.97 121.62H1770.5L1810.97 0Z" fill="#F7EB0E"/>
<path d="M1891.72 0L1929.55 0L1891.72 121.62H1850.02L1891.72 0Z" fill="#F7EB0E"/>
<path d="M1972.35 0L2009.07 0L1972.35 121.62H1931.88L1972.35 0Z" fill="#F7EB0E"/>
<path d="M2051.87 0L2088.59 0L2051.87 121.62H2011.4L2051.87 0Z" fill="#F7EB0E"/>
<path d="M2132.62 0L2170.45 0L2132.62 121.62H2090.93L2132.62 0Z" fill="#F7EB0E"/>
<path d="M2213.25 0L2249.97 0L2213.25 121.62H2172.79L2213.25 0Z" fill="#F7EB0E"/>
<path d="M2294 0L2331.83 0L2294 121.62H2252.31L2294 0Z" fill="#F7EB0E"/>
<path d="M2374.63 0L2411.35 0L2374.63 121.62H2334.17L2374.63 0Z" fill="#F7EB0E"/>
<path d="M2454.15 0L2490.87 0L2454.15 121.62H2413.69L2454.15 0Z" fill="#F7EB0E"/>
<path d="M2534.9 0L2572.73 0L2534.9 121.62H2493.21L2534.9 0Z" fill="#F7EB0E"/>
<path d="M2615.53 0L2652.25 0L2615.53 121.62H2575.07L2615.53 0Z" fill="#F7EB0E"/>
<path d="M2696.28 0L2734.11 0L2696.28 121.62H2654.59L2696.28 0Z" fill="#F7EB0E"/>
<path d="M2776.91 0L2813.63 0L2776.91 121.62H2736.45L2776.91 0Z" fill="#F7EB0E"/>
<path d="M2856.43 0L2893.15 0L2856.43 121.62H2815.97L2856.43 0Z" fill="#F7EB0E"/>
<path d="M2937.18 0L2975.01 0L2937.18 121.62H2895.49L2937.18 0Z" fill="#F7EB0E"/>
<path d="M3017.81 0L3054.53 0L3017.81 121.62H2977.35L3017.81 0Z" fill="#F7EB0E"/>
<path d="M3098.56 0L3136.39 0L3098.56 121.62H3056.87L3098.56 0Z" fill="#F7EB0E"/>
<path d="M3179.2 0L3215.91 0L3179.2 121.62H3138.73L3179.2 0Z" fill="#F7EB0E"/>
<path d="M3258.72 0L3295.43 0L3258.72 121.62H3218.25L3258.72 0Z" fill="#F7EB0E"/>
<path d="M3339.46 0L3377.29 0L3339.46 121.62H3297.77L3339.46 0Z" fill="#F7EB0E"/>
<path d="M3420.1 0L3456.81 0L3420.1 121.62H3379.63L3420.1 0Z" fill="#F7EB0E"/>
<path d="M3500.84 0L3538.67 0L3500.84 121.62H3459.15L3500.84 0Z" fill="#F7EB0E"/>
<path d="M3581.48 0L3618.19 0L3581.48 121.62H3541.01L3581.48 0Z" fill="#F7EB0E"/>
</g>
<defs>
<clipPath id="clip0_1_687">
<rect width="3651" height="50" rx="14.0331" fill="white"/>
</clipPath>
</defs>
</svg>
