<svg width="186" height="51" viewBox="0 0 186 51" fill="none" xmlns="http://www.w3.org/2000/svg">
<g opacity="0.8">
<g clip-path="url(#clip0_1_166)">
<rect width="186" height="51" rx="8" fill="#F7EB0E"/>
<path d="M71.6977 -96.5617L84.6908 -89.0601L-163.736 311.222L-176.729 303.72L71.6977 -96.5617Z" fill="black"/>
<path d="M102.3 -96.5617L115.294 -89.0601L-133.133 311.222L-146.127 303.72L102.3 -96.5617Z" fill="black"/>
<path d="M132.903 -96.5617L145.896 -89.0601L-102.531 311.222L-115.524 303.72L132.903 -96.5617Z" fill="black"/>
<path d="M163.506 -96.5617L176.499 -89.0601L-71.9284 311.222L-84.9215 303.72L163.506 -96.5617Z" fill="black"/>
<path d="M194.108 -96.5617L207.101 -89.0601L-41.3259 311.222L-54.319 303.72L194.108 -96.5617Z" fill="black"/>
<path d="M224.71 -96.5617L237.703 -89.0601L-10.7236 311.222L-23.7167 303.72L224.71 -96.5617Z" fill="black"/>
<path d="M255.313 -96.5617L268.306 -89.0601L19.8792 311.222L6.88612 303.72L255.313 -96.5617Z" fill="black"/>
<path d="M285.916 -96.5617L298.909 -89.0601L50.4818 311.222L37.4887 303.72L285.916 -96.5617Z" fill="black"/>
<path d="M316.518 -96.5617L329.511 -89.0601L81.0843 311.222L68.0912 303.72L316.518 -96.5617Z" fill="black"/>
<path d="M347.121 -96.5617L360.114 -89.0601L111.687 311.222L98.6937 303.72L347.121 -96.5617Z" fill="black"/>
<path d="M377.724 -96.5615L390.717 -89.06L142.29 311.222L129.297 303.72L377.724 -96.5615Z" fill="black"/>
<path d="M408.326 -96.5615L421.319 -89.06L172.892 311.222L159.899 303.72L408.326 -96.5615Z" fill="black"/>
</g>
<rect x="0.5" y="0.5" width="185" height="50" rx="7.5" stroke="#F7EB0E"/>
</g>
<defs>
<clipPath id="clip0_1_166">
<rect width="186" height="51" rx="8" fill="white"/>
</clipPath>
</defs>
</svg>
