<svg width="271" height="156" viewBox="0 0 271 156" fill="none" xmlns="http://www.w3.org/2000/svg">
<path d="M124.828 149.611C133.987 149.611 143.128 149.088 152.229 148.265C169.451 146.608 186.536 143.42 203.098 138.439C211.412 136.036 219.503 133.129 227.187 129.467C234.831 125.765 242.097 121.298 248.148 115.611C248.76 115.029 249.362 114.438 249.935 113.818L251.558 111.89L251.451 111.987C254.792 108.314 257.628 104.206 259.736 99.7781C261.854 95.3596 263.272 90.6021 263.981 85.6991C265.321 75.8739 263.864 65.6707 260.3 56.3106C258.211 50.8941 255.394 45.7587 251.946 41.1077C248.507 36.4664 244.37 32.2418 239.863 28.5307C230.8 21.0891 220.077 15.663 208.78 12.0294C197.464 8.36671 185.585 6.59342 173.579 6.10894C161.573 5.61477 149.48 6.38038 137.416 7.69816C129.869 8.47333 117.086 10.5662 116.979 8.36668C116.931 7.22331 118.99 5.9637 122.749 4.7622C126.498 3.56069 131.938 2.42707 138.621 1.67128C154.784 -0.121287 171.306 -0.80935 187.644 1.32235C195.822 2.32038 203.884 4.18082 211.723 6.70011C215.618 8.03727 219.494 9.44214 223.233 11.1863C225.128 11.9905 226.944 12.9692 228.799 13.8703C229.712 14.3451 230.606 14.8684 231.509 15.3625C232.413 15.8567 233.316 16.3606 234.18 16.9129C244.506 23.1433 253.733 31.4958 260.28 41.883C266.788 52.212 270.605 64.2368 270.974 76.5134C271.149 82.6469 270.431 88.8384 268.672 94.7684C266.924 100.708 264.097 106.338 260.484 111.318C256.871 116.318 252.48 120.698 247.672 124.438C242.874 128.188 237.687 131.356 232.325 134.098C222.699 139.04 212.51 142.567 202.282 145.493C192.034 148.439 181.612 150.765 171.092 152.47C150.053 155.881 128.616 156.811 107.353 155.299C97.368 154.582 87.4118 153.361 77.5528 151.569C67.6355 149.757 57.8348 147.102 48.3934 143.333C43.6727 141.463 39.0492 139.273 34.5907 136.744C30.1226 134.234 25.839 131.337 21.8468 128.033C17.8352 124.748 14.1831 120.969 11.0068 116.783C7.84024 112.588 5.24678 107.917 3.35268 102.976C0.118138 94.4489 -0.833821 84.9336 0.749453 75.9902C2.22588 66.9983 5.92666 58.5682 10.8902 51.1557C15.912 43.7626 22.216 37.29 29.4621 32.1158C33.0852 29.5287 36.9317 27.2614 40.9724 25.3622C41.9826 24.8971 43.0122 24.4513 44.0321 24.0152L47.1403 22.8525C49.1899 22.0192 51.3268 21.4574 53.4346 20.7985C61.4384 18.4536 70.1901 17.4264 77.9899 16.3703L77.8539 16.3412C79.0583 16.4381 80.2725 16.4961 81.5158 16.5155C82.7494 16.5543 84.0025 16.6028 85.2749 16.6416C87.8101 16.6416 90.3744 16.8063 92.9485 16.8935C98.0577 17.2521 103.167 17.8236 107.518 19.4612H107.528C108.315 19.6259 109.102 19.7906 109.889 19.9554L112.229 20.5368C113.793 20.905 115.338 21.2731 116.853 21.6316C123.817 23.182 128.062 24.7614 129.937 25.837C131.811 26.9319 131.287 27.6296 128.664 28.0947C127.508 28.2982 128.422 29.3542 125.1 28.676C125.09 28.676 124.866 28.5598 124.866 28.5598L124.944 28.6275C120.185 28.0945 115.105 26.8834 109.859 25.7982C104.624 24.7227 99.233 23.5696 94.0363 23.1045C81.3216 21.8739 68.4126 22.4456 56.2029 25.8079L51.6862 27.2128C50.1806 27.6973 48.7333 28.3271 47.2569 28.8697C44.3235 30.0131 41.5358 31.4086 38.8257 32.9686C33.4154 36.1177 28.4616 40.0516 24.0906 44.5379C19.7196 49.0242 15.98 54.1209 13.0466 59.6149C10.1034 65.0992 8.02477 71.0387 7.09229 77.1238C6.15009 83.1991 6.3541 89.4296 7.84996 95.3596C9.38466 101.299 11.9975 106.968 15.64 111.958C20.0596 118.13 25.8293 123.343 32.2304 127.674C38.6412 132.006 45.6736 135.484 52.9683 138.294C60.2728 141.104 67.8492 143.245 75.5421 144.825L78.4367 145.387L81.3605 145.881C83.3128 146.201 85.2555 146.559 87.2078 146.84C91.1223 147.363 95.0368 147.926 98.9707 148.274C107.577 149.117 116.231 149.369 124.993 149.592L124.828 149.611Z" fill="white"/>
<path d="M44.418 77.2969C44.2227 77.2891 43.9922 77.2617 43.7266 77.2148C40.9453 76.6914 39.3398 74.3398 38.9102 70.1602C38.8711 69.7617 38.8516 69.3477 38.8516 68.918C38.8516 67.0039 39.2109 64.9844 39.9297 62.8594C40.5234 61.2422 41.2891 59.8125 42.2266 58.5703C43.1719 57.3203 44.1562 56.4336 45.1797 55.9102C45.4531 55.7695 45.6758 55.668 45.8477 55.6055C46.0195 55.543 46.207 55.5039 46.4102 55.4883C46.6133 55.4727 46.9141 55.4648 47.3125 55.4648C47.6875 55.4648 47.9727 55.4727 48.168 55.4883C48.3711 55.5039 48.5469 55.5352 48.6953 55.582C49.3047 55.7852 49.918 56.1875 50.5352 56.7891C50.9648 57.2109 51.3242 57.6562 51.6133 58.125C51.9023 58.6328 52.2188 59.3125 52.5625 60.1641C52.9531 61.0547 53.1484 61.7695 53.1484 62.3086C53.1484 62.6055 53.0898 62.875 52.9727 63.1172C52.8555 63.3516 52.6836 63.5859 52.457 63.8203C52.1758 64.1172 51.8281 64.3242 51.4141 64.4414C51.1719 64.5195 50.9688 64.5586 50.8047 64.5586C50.6406 64.5586 50.4375 64.5195 50.1953 64.4414C49.6875 64.3086 49.2773 64.0547 48.9648 63.6797C48.6602 63.3047 48.3242 62.6602 47.957 61.7461C47.6289 60.9336 47.4219 60.4805 47.3359 60.3867L47.3125 60.375C47.2188 60.375 46.9531 60.6055 46.5156 61.0664C45.7109 61.9727 45.0625 63.1484 44.5703 64.5938C44.0781 66.0391 43.832 67.4492 43.832 68.8242C43.832 69.2461 43.8594 69.6523 43.9141 70.043C43.9922 70.6523 44.0742 71.1211 44.1602 71.4492C44.2539 71.7695 44.3672 72.0117 44.5 72.1758L44.6992 72.4219L45.5898 72.1406C47.082 71.6719 48.5234 70.7461 49.9141 69.3633C50.5469 68.6836 51.2344 68.3438 51.9766 68.3438L52.1992 68.3555C52.8008 68.4102 53.2695 68.6289 53.6055 69.0117C53.9414 69.3945 54.1094 69.8672 54.1094 70.4297C54.1094 70.8438 54.0078 71.2812 53.8047 71.7422C53.5781 72.1875 53.1641 72.7148 52.5625 73.3242C51.9609 73.9336 51.3164 74.4727 50.6289 74.9414C49.5742 75.6367 48.4648 76.2031 47.3008 76.6406C46.1445 77.0781 45.1836 77.2969 44.418 77.2969ZM57.9766 81.0586C57.6328 81.0586 57.293 80.9648 56.957 80.7773C56.543 80.5508 56.1641 80.125 55.8203 79.5C55.4766 78.875 55.2109 78.1406 55.0234 77.2969C54.9375 76.8203 54.8711 75.7539 54.8242 74.0977C54.7852 72.4336 54.7656 70.5508 54.7656 68.4492C54.7656 65.6758 54.7969 63.0078 54.8594 60.4453C54.9297 57.8828 55.0273 56.2773 55.1523 55.6289C55.1992 55.4336 55.2695 55.2266 55.3633 55.0078C55.457 54.7891 55.5508 54.6094 55.6445 54.4688C55.9023 54.1094 56.207 53.8438 56.5586 53.6719C56.918 53.4922 57.2852 53.4023 57.6602 53.4023C58.082 53.4023 58.4805 53.5117 58.8555 53.7305C59.2305 53.9414 59.5312 54.2578 59.7578 54.6797C59.8516 54.8594 59.9219 55.0391 59.9688 55.2188C60.0156 55.3984 60.0391 55.6445 60.0391 55.957C60.0391 56.4336 59.9922 57.1914 59.8984 58.2305C59.8125 59.5039 59.7266 61.0977 59.6406 63.0117C59.5703 65.1133 59.5352 67.875 59.5352 71.2969C59.5352 72.3359 59.5391 73.2227 59.5469 73.957C59.5625 74.6836 59.582 75.1094 59.6055 75.2344C59.6367 75.3594 59.6953 75.4219 59.7812 75.4219L59.8633 75.3984C60.1211 75.3047 60.5664 75.2578 61.1992 75.2578C61.5898 75.2578 61.8984 75.2852 62.125 75.3398C62.75 75.5664 63.207 75.9727 63.4961 76.5586C63.6289 76.8633 63.6953 77.1602 63.6953 77.4492C63.6953 78.0039 63.4531 78.5273 62.9688 79.0195C62.7734 79.2148 62.5625 79.3711 62.3359 79.4883C62.1172 79.6133 61.7773 79.7461 61.3164 79.8867C60.5508 80.1289 59.9102 80.3828 59.3945 80.6484C58.8789 80.9219 58.4062 81.0586 57.9766 81.0586ZM66.4258 81.5156C66.3242 81.5156 66.1914 81.4883 66.0273 81.4336C65.8633 81.3867 65.7031 81.3242 65.5469 81.2461C65.3984 81.1758 65.2422 81.0664 65.0781 80.918C64.9141 80.7773 64.7773 80.6367 64.668 80.4961C64.4492 80.2383 64.2891 79.9062 64.1875 79.5C64.0938 79.0938 64.0469 78.3789 64.0469 77.3555C64.0469 76.3477 64.0859 74.8984 64.1641 73.0078C64.2266 71.1641 64.2812 69.7109 64.3281 68.6484C64.3828 67.5859 64.4453 66.7969 64.5156 66.2812C64.5938 65.7578 64.6992 65.3867 64.832 65.168C64.9648 64.9414 65.1406 64.7383 65.3594 64.5586C65.8516 64.1602 66.3594 63.9609 66.8828 63.9609C67.3906 63.9609 67.8594 64.125 68.2891 64.4531C68.7188 64.7734 69.0273 65.2305 69.2148 65.8242C69.3008 66.1133 69.3438 66.418 69.3438 66.7383C69.3438 67.0117 69.3242 67.3789 69.2852 67.8398C69.1289 69.8164 68.9727 72.6719 68.8164 76.4062C68.7773 77.375 68.7305 78.125 68.6758 78.6562C68.6289 79.1953 68.5547 79.6094 68.4531 79.8984C68.3594 80.1875 68.2227 80.4453 68.043 80.6719C67.8633 80.8984 67.6172 81.0898 67.3047 81.2461C67 81.4102 66.707 81.5 66.4258 81.5156ZM69.5898 63.9609L67.0938 62.6133L64.8086 63.832L66.0508 61.3125L63.8242 59.7773L66.3672 59.8945L67.5156 57.3516L68.1016 59.8359L70.7266 60.0234L68.3945 61.5L69.5898 63.9609ZM77.6523 76.4883C76.9727 76.4883 76.3789 76.4336 75.8711 76.3242C72.9102 75.5195 71.1055 73.2148 70.457 69.4102C70.3398 68.5586 70.2812 67.6328 70.2812 66.6328C70.2812 64.0078 70.8945 62.0352 72.1211 60.7148C72.9883 59.7773 74.0586 59.3086 75.332 59.3086C76.2227 59.3086 77.0664 59.5547 77.8633 60.0469C78.543 60.4609 79.0977 60.9766 79.5273 61.5938C79.957 62.2031 80.1719 62.8281 80.1719 63.4688C80.1719 63.9531 80.0586 64.375 79.832 64.7344C79.6133 65.0859 79.3281 65.3594 78.9766 65.5547C78.625 65.75 78.2539 65.8477 77.8633 65.8477C77.5352 65.8477 77.2109 65.7734 76.8906 65.625C76.5703 65.4766 76.2812 65.2422 76.0234 64.9219C75.9297 64.8047 75.8438 64.7109 75.7656 64.6406C75.6875 64.5625 75.6367 64.5234 75.6133 64.5234C75.543 64.5234 75.4727 64.7617 75.4023 65.2383C75.332 65.707 75.2969 66.2344 75.2969 66.8203C75.2969 67.9766 75.4141 68.9648 75.6484 69.7852C75.8906 70.6055 76.2109 71.1445 76.6094 71.4023C76.9688 71.6211 77.332 71.7305 77.6992 71.7305C78.1602 71.7305 78.6055 71.5508 79.0352 71.1914C79.7617 70.6211 80.4492 70.3359 81.0977 70.3359C81.4648 70.3359 81.7969 70.4258 82.0938 70.6055C82.3906 70.7773 82.6328 71.043 82.8203 71.4023C83.0078 71.7539 83.1016 72.1211 83.1016 72.5039C83.1016 73.293 82.7578 74.0508 82.0703 74.7773C81.3906 75.4961 80.4844 76.0156 79.3516 76.3359C78.875 76.4375 78.3086 76.4883 77.6523 76.4883ZM86.2891 78.7266C86.0234 78.7266 85.7617 78.6641 85.5039 78.5391C84.6836 78.1172 84.1641 77.3711 83.9453 76.3008C83.8516 75.7617 83.7695 74.1133 83.6992 71.3555C83.6055 68.0977 83.5547 64.3008 83.5469 59.9648C83.5469 58.6133 83.5586 57.5977 83.582 56.918C83.6133 56.2383 83.6719 55.7305 83.7578 55.3945C83.8438 55.0508 83.9727 54.7344 84.1445 54.4453C84.3789 54.0234 84.6875 53.707 85.0703 53.4961C85.4609 53.2852 85.8633 53.1797 86.2773 53.1797C86.6836 53.1797 87.0703 53.2812 87.4375 53.4844C87.8047 53.6797 88.0977 53.9805 88.3164 54.3867L88.5859 54.8906L88.457 63.0703C88.8242 62.5781 89.1445 62.1875 89.418 61.8984C90.0742 61.1875 90.7812 60.832 91.5391 60.832C91.9531 60.832 92.3359 60.9336 92.6875 61.1367C93.0391 61.3398 93.3047 61.625 93.4844 61.9922C93.6406 62.3047 93.7188 62.6133 93.7188 62.918C93.7188 63.2305 93.6211 63.5859 93.4258 63.9844C93.2305 64.3828 92.9141 64.9102 92.4766 65.5664C91.8516 66.5195 91.332 67.3828 90.918 68.1562L90.3203 69.2812L90.8125 69.6445C91.0312 69.8008 91.3906 70.0352 91.8906 70.3477C93.0703 71.082 94.0703 71.6758 94.8906 72.1289C95.5625 72.4883 96.0508 72.8477 96.3555 73.207C96.6836 73.5977 96.8711 74.0859 96.918 74.6719C96.918 75.2188 96.6094 75.7695 95.9922 76.3242C95.8594 76.4336 95.7422 76.5156 95.6406 76.5703C95.5391 76.625 95.4141 76.6602 95.2656 76.6758C95.1172 76.6836 94.8945 76.6875 94.5977 76.6875C94.3008 76.6875 94.0664 76.6797 93.8945 76.6641C93.7227 76.6406 93.5391 76.5898 93.3438 76.5117C93.1484 76.4336 92.8867 76.3125 92.5586 76.1484C92.2305 75.9844 91.8281 75.7734 91.3516 75.5156C90.8828 75.2578 90.4531 75.0117 90.0625 74.7773C89.6719 74.543 89.3398 74.3477 89.0664 74.1914C88.793 74.0273 88.6484 73.9453 88.6328 73.9453C88.6016 73.9453 88.5859 74.3672 88.5859 75.2109C88.5859 75.9922 88.5273 76.5938 88.4102 77.0156C88.3008 77.4297 88.0977 77.7734 87.8008 78.0469C87.3086 78.5 86.8047 78.7266 86.2891 78.7266ZM110.629 76.2422C110.129 76.2422 109.742 76.1992 109.469 76.1133C107.602 75.5273 106.34 74.2031 105.684 72.1406C105.551 71.6406 105.484 71.0625 105.484 70.4062C105.484 68.6641 105.918 67.1172 106.785 65.7656C107.23 65.0703 107.695 64.6172 108.18 64.4062C108.312 64.3594 108.414 64.2891 108.484 64.1953C108.555 64.0938 108.613 63.9375 108.66 63.7266C108.816 63.1484 109.102 62.707 109.516 62.4023C109.93 62.0977 110.387 61.9453 110.887 61.9453C111.246 61.9453 111.602 62.0273 111.953 62.1914C112.305 62.3477 112.629 62.5938 112.926 62.9297C113.098 63.1406 113.328 63.5156 113.617 64.0547C113.906 64.5859 114.191 65.1562 114.473 65.7656C114.754 66.375 114.965 66.8984 115.105 67.3359C115.441 68.3984 115.609 69.4102 115.609 70.3711C115.609 71.582 115.355 72.6641 114.848 73.6172C114.348 74.5703 113.621 75.2891 112.668 75.7734C112.316 75.9531 112.023 76.0742 111.789 76.1367C111.555 76.1914 111.258 76.2227 110.898 76.2305L110.629 76.2422ZM110.594 71.4375C110.719 71.4375 110.805 71.1758 110.852 70.6523L110.863 70.418C110.863 70.0195 110.828 69.6641 110.758 69.3516C110.695 68.9766 110.637 68.7891 110.582 68.7891C110.551 68.7891 110.52 68.8242 110.488 68.8945C110.434 69.0117 110.391 69.2148 110.359 69.5039C110.328 69.793 110.312 70.0859 110.312 70.3828C110.312 70.8438 110.344 71.1367 110.406 71.2617C110.477 71.3789 110.539 71.4375 110.594 71.4375ZM118.727 78C118.398 78 118.078 77.9258 117.766 77.7773C117.086 77.4102 116.652 76.8125 116.465 75.9844C116.426 75.7109 116.406 75.0508 116.406 74.0039C116.406 72.9414 116.422 71.6797 116.453 70.2188C116.484 68.7578 116.52 67.4375 116.559 66.2578C116.605 65.0703 116.656 64.3008 116.711 63.9492C116.938 62.6133 117.559 61.793 118.574 61.4883C118.746 61.4414 118.922 61.418 119.102 61.418C119.484 61.418 119.852 61.5078 120.203 61.6875C120.555 61.8594 120.832 62.1094 121.035 62.4375C121.246 62.7578 121.879 63.9648 122.934 66.0586C124.012 68.2148 124.578 69.293 124.633 69.293C124.672 69.293 124.84 68.875 125.137 68.0391C125.684 66.4375 126.113 65.2812 126.426 64.5703C126.738 63.8516 127.012 63.3828 127.246 63.1641C127.73 62.6875 128.277 62.4492 128.887 62.4492C129.441 62.4492 129.934 62.6562 130.363 63.0703C130.801 63.4844 131.02 64.043 131.02 64.7461C131.02 64.9805 130.918 65.4492 130.715 66.1523C130.512 66.8477 130.152 67.9883 129.637 69.5742C128.746 72.2852 128.219 73.8164 128.055 74.168C127.875 74.5039 127.617 74.8359 127.281 75.1641C126.953 75.4922 126.625 75.7344 126.297 75.8906C125.883 76.0859 125.465 76.1836 125.043 76.1836C124.449 76.1836 123.871 76 123.309 75.6328C122.746 75.2578 122.227 74.7148 121.75 74.0039C121.477 73.5977 121.32 73.3945 121.281 73.3945C121.258 73.4648 121.211 73.9648 121.141 74.8945C121.102 75.4727 121.055 75.8984 121 76.1719C120.867 76.8594 120.496 77.3672 119.887 77.6953C119.52 77.8984 119.133 78 118.727 78ZM146.582 80.9062C146.176 80.9062 145.77 80.8516 145.363 80.7422C144.965 80.6406 144.57 80.5 144.18 80.3203C143.789 80.1406 143.32 79.8828 142.773 79.5469C141.961 79.0625 141.395 78.6133 141.074 78.1992C140.762 77.793 140.605 77.3008 140.605 76.7227C140.605 76.0977 140.805 75.5859 141.203 75.1875C141.609 74.7891 142.129 74.5898 142.762 74.5898C142.98 74.5898 143.16 74.6055 143.301 74.6367C143.449 74.6602 143.625 74.7227 143.828 74.8242C144.031 74.9258 144.309 75.0859 144.66 75.3047C145.02 75.5234 145.34 75.707 145.621 75.8555C145.902 76.0039 146.082 76.0938 146.16 76.125C146.246 76.1484 146.324 76.1602 146.395 76.1602C146.637 76.1602 146.766 76.0391 146.781 75.7969C146.781 75.5781 146.562 75.2891 146.125 74.9297C145.688 74.5625 145.129 74.1992 144.449 73.8398C142.465 72.8477 141 71.707 140.055 70.418C139.047 69.1367 138.543 67.8281 138.543 66.4922C138.543 65.7578 138.691 65.0039 138.988 64.2305C139.27 63.5117 139.73 62.832 140.371 62.1914C141.012 61.5508 141.699 61.082 142.434 60.7852C142.949 60.6055 143.516 60.5156 144.133 60.5156C144.711 60.5156 145.25 60.5977 145.75 60.7617C147.18 61.3086 148.297 62.3281 149.102 63.8203C149.422 64.4375 149.582 64.9883 149.582 65.4727C149.582 66.2148 149.25 66.793 148.586 67.207C148.18 67.4648 147.766 67.5938 147.344 67.5938C147.219 67.5938 147.098 67.582 146.98 67.5586C146.621 67.4805 146.309 67.3359 146.043 67.125C145.777 66.9141 145.496 66.5898 145.199 66.1523C144.762 65.4648 144.395 65.1211 144.098 65.1211C143.98 65.1211 143.863 65.1758 143.746 65.2852C143.371 65.6211 143.184 65.9844 143.184 66.375C143.184 66.6875 143.297 67.0117 143.523 67.3477C144.008 68.1211 145.02 68.9102 146.559 69.7148C147.434 70.1758 148.082 70.5547 148.504 70.8516C149.488 71.5234 150.258 72.3906 150.812 73.4531C151.273 74.3359 151.504 75.1328 151.504 75.8438C151.504 76.7422 151.227 77.6211 150.672 78.4805C150.125 79.3398 149.395 80.0117 148.48 80.4961C147.895 80.7695 147.262 80.9062 146.582 80.9062ZM156.566 86.0391C156.309 86.0391 156.027 85.9648 155.723 85.8164C155.129 85.5664 154.66 85.1445 154.316 84.5508C153.973 83.957 153.711 83.0547 153.531 81.8438C153.219 79.6875 153.062 76.4609 153.062 72.1641C153.062 71.2891 153.094 68.875 153.156 64.9219H152.477C151.547 64.8906 150.824 64.5273 150.309 63.832C150.16 63.6367 150.066 63.4609 150.027 63.3047C149.98 63.1484 149.957 62.9141 149.957 62.6016C149.957 62.2812 149.98 62.0469 150.027 61.8984C150.066 61.7422 150.16 61.5625 150.309 61.3594C150.801 60.6562 151.637 60.2812 152.816 60.2344C153.012 60.2344 153.156 60.207 153.25 60.1523C153.344 60.0898 153.41 59.9375 153.449 59.6953C153.496 59.4453 153.547 59.0391 153.602 58.4766L153.684 57.7383C153.824 56.3555 154.008 55.3477 154.234 54.7148C154.461 54.0742 154.793 53.6133 155.23 53.332C155.387 53.2148 155.547 53.1406 155.711 53.1094C155.883 53.0703 156.137 53.0508 156.473 53.0508C156.832 53.0508 157.094 53.0703 157.258 53.1094C157.422 53.1484 157.598 53.2344 157.785 53.3672C158.09 53.5781 158.332 53.8633 158.512 54.2227C158.582 54.3633 158.633 54.5039 158.664 54.6445C158.703 54.7773 158.723 54.9531 158.723 55.1719C158.723 55.6328 158.641 56.4609 158.477 57.6562C158.32 58.9453 158.223 59.7891 158.184 60.1875L158.688 60.375C159.023 60.5078 159.324 60.7227 159.59 61.0195C159.949 61.4102 160.129 61.8164 160.129 62.2383C160.129 62.6523 159.988 63.0508 159.707 63.4336C159.434 63.8086 159.055 64.1172 158.57 64.3594L157.926 64.6758V64.7461C157.832 67.6602 157.785 70.1367 157.785 72.1758C157.785 73.957 157.809 75.6641 157.855 77.2969C157.902 78.9219 157.965 80.0742 158.043 80.7539C158.113 81.3555 158.258 82.043 158.477 82.8164C158.641 83.3945 158.723 83.7812 158.723 83.9766C158.723 84.1484 158.691 84.3203 158.629 84.4922C158.402 85.2031 157.949 85.6758 157.27 85.9102C157.004 85.9961 156.77 86.0391 156.566 86.0391ZM172.363 78.3633C172.012 78.3633 171.672 78.2852 171.344 78.1289C170.711 77.793 170.25 77.2617 169.961 76.5352C169.859 76.2461 169.754 76.1016 169.645 76.1016L169.574 76.1133C167.691 76.9102 166.109 77.3086 164.828 77.3086L164.5 77.2969C163.281 77.1953 162.309 76.7188 161.582 75.8672C160.855 75.0078 160.492 73.957 160.492 72.7148C160.492 72.2539 160.551 71.7773 160.668 71.2852C160.941 70.1758 161.469 69.2305 162.25 68.4492C163.039 67.6602 164.012 67.1055 165.168 66.7852C165.566 66.6836 166.172 66.6016 166.984 66.5391L168.18 66.4688C167.859 63.5391 167.676 62.0781 167.629 62.0859C167.543 62.0938 167.207 62.3906 166.621 62.9766C166.082 63.5156 165.66 63.8711 165.355 64.043C165.051 64.2148 164.691 64.3008 164.277 64.3008C163.605 64.3008 163.043 64.0703 162.59 63.6094C162.137 63.1484 161.91 62.6094 161.91 61.9922C161.91 61.8047 161.934 61.6133 161.98 61.418C162.254 60.5586 162.898 59.668 163.914 58.7461C164.93 57.8242 165.969 57.1836 167.031 56.8242C167.516 56.6836 167.984 56.6133 168.438 56.6133C169.062 56.6133 169.613 56.7422 170.09 57C170.746 57.3672 171.277 57.8906 171.684 58.5703C172.09 59.25 172.418 60.2344 172.668 61.5234C172.926 62.8047 173.152 64.5391 173.348 66.7266C173.715 70.4609 174.125 73.2539 174.578 75.1055C174.68 75.4961 174.73 75.8438 174.73 76.1484C174.73 76.7734 174.496 77.2891 174.027 77.6953C173.52 78.1406 172.965 78.3633 172.363 78.3633ZM165.414 72.5508L166.293 72.3164C166.535 72.2461 166.789 72.1641 167.055 72.0703C167.32 71.9688 167.535 71.875 167.699 71.7891C167.871 71.7031 168.047 71.6172 168.227 71.5312L167.887 71.4375C167.801 71.4219 167.688 71.4141 167.547 71.4141C167.32 71.4141 167.059 71.4375 166.762 71.4844C166.473 71.5312 166.25 71.5898 166.094 71.6602C165.945 71.7227 165.812 71.8242 165.695 71.9648C165.477 72.2305 165.367 72.4102 165.367 72.5039C165.367 72.5352 165.383 72.5508 165.414 72.5508ZM178.211 78.0234C177.789 78.0234 177.461 77.9492 177.227 77.8008C176.516 77.3711 176.113 76.7461 176.02 75.9258C175.957 75.3867 175.902 73.7422 175.855 70.9922C175.816 69.125 175.797 67.9219 175.797 67.3828C175.797 66.6484 175.82 66.1094 175.867 65.7656C175.914 65.4141 175.992 65.1562 176.102 64.9922C176.219 64.8203 176.379 64.6484 176.582 64.4766C177.074 64.0625 177.594 63.8555 178.141 63.8555C178.609 63.8555 179.059 64.0039 179.488 64.3008L179.98 64.6523L180.484 64.1836C181.195 63.5586 181.887 63.2461 182.559 63.2461C183.27 63.2461 183.895 63.5898 184.434 64.2773C184.777 64.7617 185.105 65.375 185.418 66.1172C185.738 66.8594 185.898 67.3906 185.898 67.7109C185.898 68 185.836 68.2969 185.711 68.6016C185.586 68.8984 185.43 69.1328 185.242 69.3047C184.766 69.6875 184.25 69.8789 183.695 69.8789C183.25 69.8789 182.828 69.75 182.43 69.4922C182.133 69.2812 181.957 69.1758 181.902 69.1758C181.84 69.1758 181.391 69.7031 180.555 70.7578L180.484 76.3594L180.133 76.9219C179.695 77.6562 179.055 78.0234 178.211 78.0234ZM191.207 86.0391C190.949 86.0391 190.668 85.9648 190.363 85.8164C189.77 85.5664 189.301 85.1445 188.957 84.5508C188.613 83.957 188.352 83.0547 188.172 81.8438C187.859 79.6875 187.703 76.4609 187.703 72.1641C187.703 71.2891 187.734 68.875 187.797 64.9219H187.117C186.188 64.8906 185.465 64.5273 184.949 63.832C184.801 63.6367 184.707 63.4609 184.668 63.3047C184.621 63.1484 184.598 62.9141 184.598 62.6016C184.598 62.2812 184.621 62.0469 184.668 61.8984C184.707 61.7422 184.801 61.5625 184.949 61.3594C185.441 60.6562 186.277 60.2812 187.457 60.2344C187.652 60.2344 187.797 60.207 187.891 60.1523C187.984 60.0898 188.051 59.9375 188.09 59.6953C188.137 59.4453 188.188 59.0391 188.242 58.4766L188.324 57.7383C188.465 56.3555 188.648 55.3477 188.875 54.7148C189.102 54.0742 189.434 53.6133 189.871 53.332C190.027 53.2148 190.188 53.1406 190.352 53.1094C190.523 53.0703 190.777 53.0508 191.113 53.0508C191.473 53.0508 191.734 53.0703 191.898 53.1094C192.062 53.1484 192.238 53.2344 192.426 53.3672C192.73 53.5781 192.973 53.8633 193.152 54.2227C193.223 54.3633 193.273 54.5039 193.305 54.6445C193.344 54.7773 193.363 54.9531 193.363 55.1719C193.363 55.6328 193.281 56.4609 193.117 57.6562C192.961 58.9453 192.863 59.7891 192.824 60.1875L193.328 60.375C193.664 60.5078 193.965 60.7227 194.23 61.0195C194.59 61.4102 194.77 61.8164 194.77 62.2383C194.77 62.6523 194.629 63.0508 194.348 63.4336C194.074 63.8086 193.695 64.1172 193.211 64.3594L192.566 64.6758V64.7461C192.473 67.6602 192.426 70.1367 192.426 72.1758C192.426 73.957 192.449 75.6641 192.496 77.2969C192.543 78.9219 192.605 80.0742 192.684 80.7539C192.754 81.3555 192.898 82.043 193.117 82.8164C193.281 83.3945 193.363 83.7812 193.363 83.9766C193.363 84.1484 193.332 84.3203 193.27 84.4922C193.043 85.2031 192.59 85.6758 191.91 85.9102C191.645 85.9961 191.41 86.0391 191.207 86.0391ZM208.727 87.9961C208.508 87.9961 208.289 87.957 208.07 87.8789C207.422 87.6602 206.922 87.25 206.57 86.6484C206.219 86.0469 205.918 85.0938 205.668 83.7891C205.363 82.2109 205.055 80.0742 204.742 77.3789L204.52 75.3984L203.992 74.8594C203.523 74.3516 203.289 73.8008 203.289 73.207C203.289 72.6992 203.465 72.2031 203.816 71.7188L204.109 71.332C204.094 70.6133 204.078 70.0742 204.062 69.7148C204.055 69.3477 204.047 68.9961 204.039 68.6602C204.039 68.3242 204.039 67.8047 204.039 67.1016C204.039 65.8906 204.078 64.8281 204.156 63.9141C204.242 63 204.375 62.0781 204.555 61.1484C204.797 59.8984 205.125 58.9648 205.539 58.3477C205.953 57.7227 206.5 57.3359 207.18 57.1875C207.367 57.1406 207.551 57.1172 207.73 57.1172C208.223 57.1172 208.668 57.2578 209.066 57.5391C209.473 57.8125 209.797 58.168 210.039 58.6055C210.281 59.0352 210.402 59.4805 210.402 59.9414C210.402 60.4648 210.219 60.957 209.852 61.418C209.633 61.6367 209.477 62.0781 209.383 62.7422C209.289 63.3984 209.223 64.5 209.184 66.0469L209.113 68.6719L209.605 68.7539C210.379 68.8945 210.949 69.2266 211.316 69.75C211.566 70.1328 211.691 70.5273 211.691 70.9336C211.691 71.3789 211.551 71.8125 211.27 72.2344C210.988 72.6484 210.578 73.0156 210.039 73.3359L209.277 73.7695C209.699 78.8086 210.148 82.3008 210.625 84.2461C210.789 84.8945 210.871 85.4258 210.871 85.8398C210.871 86.3633 210.734 86.7734 210.461 87.0703C209.938 87.6875 209.359 87.9961 208.727 87.9961ZM217.27 76.2422C216.77 76.2422 216.383 76.1992 216.109 76.1133C214.242 75.5273 212.98 74.2031 212.324 72.1406C212.191 71.6406 212.125 71.0625 212.125 70.4062C212.125 68.6641 212.559 67.1172 213.426 65.7656C213.871 65.0703 214.336 64.6172 214.82 64.4062C214.953 64.3594 215.055 64.2891 215.125 64.1953C215.195 64.0938 215.254 63.9375 215.301 63.7266C215.457 63.1484 215.742 62.707 216.156 62.4023C216.57 62.0977 217.027 61.9453 217.527 61.9453C217.887 61.9453 218.242 62.0273 218.594 62.1914C218.945 62.3477 219.27 62.5938 219.566 62.9297C219.738 63.1406 219.969 63.5156 220.258 64.0547C220.547 64.5859 220.832 65.1562 221.113 65.7656C221.395 66.375 221.605 66.8984 221.746 67.3359C222.082 68.3984 222.25 69.4102 222.25 70.3711C222.25 71.582 221.996 72.6641 221.488 73.6172C220.988 74.5703 220.262 75.2891 219.309 75.7734C218.957 75.9531 218.664 76.0742 218.43 76.1367C218.195 76.1914 217.898 76.2227 217.539 76.2305L217.27 76.2422ZM217.234 71.4375C217.359 71.4375 217.445 71.1758 217.492 70.6523L217.504 70.418C217.504 70.0195 217.469 69.6641 217.398 69.3516C217.336 68.9766 217.277 68.7891 217.223 68.7891C217.191 68.7891 217.16 68.8242 217.129 68.8945C217.074 69.0117 217.031 69.2148 217 69.5039C216.969 69.793 216.953 70.0859 216.953 70.3828C216.953 70.8438 216.984 71.1367 217.047 71.2617C217.117 71.3789 217.18 71.4375 217.234 71.4375ZM225.461 78.0234C225.039 78.0234 224.711 77.9492 224.477 77.8008C223.766 77.3711 223.363 76.7461 223.27 75.9258C223.207 75.3867 223.152 73.7422 223.105 70.9922C223.066 69.125 223.047 67.9219 223.047 67.3828C223.047 66.6484 223.07 66.1094 223.117 65.7656C223.164 65.4141 223.242 65.1562 223.352 64.9922C223.469 64.8203 223.629 64.6484 223.832 64.4766C224.324 64.0625 224.844 63.8555 225.391 63.8555C225.859 63.8555 226.309 64.0039 226.738 64.3008L227.23 64.6523L227.734 64.1836C228.445 63.5586 229.137 63.2461 229.809 63.2461C230.52 63.2461 231.145 63.5898 231.684 64.2773C232.027 64.7617 232.355 65.375 232.668 66.1172C232.988 66.8594 233.148 67.3906 233.148 67.7109C233.148 68 233.086 68.2969 232.961 68.6016C232.836 68.8984 232.68 69.1328 232.492 69.3047C232.016 69.6875 231.5 69.8789 230.945 69.8789C230.5 69.8789 230.078 69.75 229.68 69.4922C229.383 69.2812 229.207 69.1758 229.152 69.1758C229.09 69.1758 228.641 69.7031 227.805 70.7578L227.734 76.3594L227.383 76.9219C226.945 77.6562 226.305 78.0234 225.461 78.0234ZM69.1328 113.105C68.7656 113.105 68.4141 113.047 68.0781 112.93C67.0781 112.555 66.2617 112.023 65.6289 111.336C65.0664 110.688 64.6094 109.852 64.2578 108.828C63.9062 107.797 63.7305 106.789 63.7305 105.805C63.7305 105.125 63.7695 104.359 63.8477 103.508C63.9336 102.648 64.0273 102.035 64.1289 101.668C64.3086 101.082 64.6133 100.621 65.043 100.285C65.4727 99.9414 65.9609 99.7695 66.5078 99.7695L66.7539 99.7812C67.0742 99.8047 67.3477 99.8867 67.5742 100.027C67.8086 100.168 68.0547 100.398 68.3125 100.719C68.4297 100.867 68.5156 101.031 68.5703 101.211C68.6328 101.391 68.6641 101.629 68.6641 101.926C68.6641 102.332 68.6133 102.887 68.5117 103.59C68.4414 104.16 68.4062 104.742 68.4062 105.336C68.4062 106.312 68.4922 107.082 68.6641 107.645C68.7188 107.77 68.7734 107.871 68.8281 107.949C68.8828 108.027 68.9219 108.066 68.9453 108.066L68.9688 108.055C69 108 69.0703 107.664 69.1797 107.047C69.2891 106.43 69.4102 105.672 69.543 104.773C69.6758 103.867 69.8047 103.074 69.9297 102.395C70.0547 101.715 70.1445 101.305 70.1992 101.164C70.5039 100.477 71.0039 100.023 71.6992 99.8047C71.9258 99.7266 72.1211 99.6875 72.2852 99.6875C72.4492 99.6875 72.6406 99.7266 72.8594 99.8047C73.625 100.055 74.1328 100.559 74.3828 101.316C74.4453 101.527 74.4766 101.742 74.4766 101.961C74.4766 102.289 74.3828 103.16 74.1953 104.574C73.9531 106.348 73.7617 107.578 73.6211 108.266C73.2852 109.711 72.8008 110.848 72.168 111.676C71.793 112.129 71.332 112.48 70.7852 112.73C70.2383 112.98 69.6875 113.105 69.1328 113.105ZM83.0547 115.906C82.6484 115.906 82.2422 115.852 81.8359 115.742C81.4375 115.641 81.043 115.5 80.6523 115.32C80.2617 115.141 79.793 114.883 79.2461 114.547C78.4336 114.062 77.8672 113.613 77.5469 113.199C77.2344 112.793 77.0781 112.301 77.0781 111.723C77.0781 111.098 77.2773 110.586 77.6758 110.188C78.082 109.789 78.6016 109.59 79.2344 109.59C79.4531 109.59 79.6328 109.605 79.7734 109.637C79.9219 109.66 80.0977 109.723 80.3008 109.824C80.5039 109.926 80.7812 110.086 81.1328 110.305C81.4922 110.523 81.8125 110.707 82.0938 110.855C82.375 111.004 82.5547 111.094 82.6328 111.125C82.7188 111.148 82.7969 111.16 82.8672 111.16C83.1094 111.16 83.2383 111.039 83.2539 110.797C83.2539 110.578 83.0352 110.289 82.5977 109.93C82.1602 109.562 81.6016 109.199 80.9219 108.84C78.9375 107.848 77.4727 106.707 76.5273 105.418C75.5195 104.137 75.0156 102.828 75.0156 101.492C75.0156 100.758 75.1641 100.004 75.4609 99.2305C75.7422 98.5117 76.2031 97.832 76.8438 97.1914C77.4844 96.5508 78.1719 96.082 78.9062 95.7852C79.4219 95.6055 79.9883 95.5156 80.6055 95.5156C81.1836 95.5156 81.7227 95.5977 82.2227 95.7617C83.6523 96.3086 84.7695 97.3281 85.5742 98.8203C85.8945 99.4375 86.0547 99.9883 86.0547 100.473C86.0547 101.215 85.7227 101.793 85.0586 102.207C84.6523 102.465 84.2383 102.594 83.8164 102.594C83.6914 102.594 83.5703 102.582 83.4531 102.559C83.0938 102.48 82.7812 102.336 82.5156 102.125C82.25 101.914 81.9688 101.59 81.6719 101.152C81.2344 100.465 80.8672 100.121 80.5703 100.121C80.4531 100.121 80.3359 100.176 80.2188 100.285C79.8438 100.621 79.6562 100.984 79.6562 101.375C79.6562 101.688 79.7695 102.012 79.9961 102.348C80.4805 103.121 81.4922 103.91 83.0312 104.715C83.9062 105.176 84.5547 105.555 84.9766 105.852C85.9609 106.523 86.7305 107.391 87.2852 108.453C87.7461 109.336 87.9766 110.133 87.9766 110.844C87.9766 111.742 87.6992 112.621 87.1445 113.48C86.5977 114.34 85.8672 115.012 84.9531 115.496C84.3672 115.77 83.7344 115.906 83.0547 115.906ZM91.75 116.516C91.6484 116.516 91.5156 116.488 91.3516 116.434C91.1875 116.387 91.0273 116.324 90.8711 116.246C90.7227 116.176 90.5664 116.066 90.4023 115.918C90.2383 115.777 90.1016 115.637 89.9922 115.496C89.7734 115.238 89.6133 114.906 89.5117 114.5C89.418 114.094 89.3711 113.379 89.3711 112.355C89.3711 111.348 89.4102 109.898 89.4883 108.008C89.5508 106.164 89.6055 104.711 89.6523 103.648C89.707 102.586 89.7695 101.797 89.8398 101.281C89.918 100.758 90.0234 100.387 90.1562 100.168C90.2891 99.9414 90.4648 99.7383 90.6836 99.5586C91.1758 99.1602 91.6836 98.9609 92.207 98.9609C92.7148 98.9609 93.1836 99.125 93.6133 99.4531C94.043 99.7734 94.3516 100.23 94.5391 100.824C94.625 101.113 94.668 101.418 94.668 101.738C94.668 102.012 94.6484 102.379 94.6094 102.84C94.4531 104.816 94.2969 107.672 94.1406 111.406C94.1016 112.375 94.0547 113.125 94 113.656C93.9531 114.195 93.8789 114.609 93.7773 114.898C93.6836 115.188 93.5469 115.445 93.3672 115.672C93.1875 115.898 92.9414 116.09 92.6289 116.246C92.3242 116.41 92.0312 116.5 91.75 116.516ZM94.9141 98.9609L92.418 97.6133L90.1328 98.832L91.375 96.3125L89.1484 94.7773L91.6914 94.8945L92.8398 92.3516L93.4258 94.8359L96.0508 95.0234L93.7188 96.5L94.9141 98.9609ZM98.5117 113C98.1836 113 97.8633 112.926 97.5508 112.777C96.8711 112.41 96.4375 111.812 96.25 110.984C96.2109 110.711 96.1914 110.051 96.1914 109.004C96.1914 107.941 96.207 106.68 96.2383 105.219C96.2695 103.758 96.3047 102.438 96.3438 101.258C96.3906 100.07 96.4414 99.3008 96.4961 98.9492C96.7227 97.6133 97.3438 96.793 98.3594 96.4883C98.5312 96.4414 98.707 96.418 98.8867 96.418C99.2695 96.418 99.6367 96.5078 99.9883 96.6875C100.34 96.8594 100.617 97.1094 100.82 97.4375C101.031 97.7578 101.664 98.9648 102.719 101.059C103.797 103.215 104.363 104.293 104.418 104.293C104.457 104.293 104.625 103.875 104.922 103.039C105.469 101.438 105.898 100.281 106.211 99.5703C106.523 98.8516 106.797 98.3828 107.031 98.1641C107.516 97.6875 108.062 97.4492 108.672 97.4492C109.227 97.4492 109.719 97.6562 110.148 98.0703C110.586 98.4844 110.805 99.043 110.805 99.7461C110.805 99.9805 110.703 100.449 110.5 101.152C110.297 101.848 109.938 102.988 109.422 104.574C108.531 107.285 108.004 108.816 107.84 109.168C107.66 109.504 107.402 109.836 107.066 110.164C106.738 110.492 106.41 110.734 106.082 110.891C105.668 111.086 105.25 111.184 104.828 111.184C104.234 111.184 103.656 111 103.094 110.633C102.531 110.258 102.012 109.715 101.535 109.004C101.262 108.598 101.105 108.395 101.066 108.395C101.043 108.465 100.996 108.965 100.926 109.895C100.887 110.473 100.84 110.898 100.785 111.172C100.652 111.859 100.281 112.367 99.6719 112.695C99.3047 112.898 98.918 113 98.5117 113ZM116.957 126.594C116.785 126.594 116.621 126.574 116.465 126.535C115.879 126.379 115.41 126.094 115.059 125.68C114.715 125.273 114.543 124.797 114.543 124.25C114.543 123.875 114.621 123.543 114.777 123.254C114.934 122.973 115.195 122.676 115.562 122.363C115.812 122.16 116.023 121.934 116.195 121.684C116.367 121.434 116.574 121.051 116.816 120.535C117.191 119.77 117.539 118.918 117.859 117.98C118.18 117.043 118.418 116.184 118.574 115.402C118.645 115.02 118.699 114.445 118.738 113.68C118.777 112.914 118.797 112.219 118.797 111.594C118.797 111.273 118.789 111.004 118.773 110.785C118.766 110.566 118.75 110.445 118.727 110.422C118.711 110.398 118.68 110.387 118.633 110.387C118.508 110.387 118.305 110.43 118.023 110.516C117.422 110.688 116.797 110.773 116.148 110.773C114.188 110.773 112.742 110.148 111.812 108.898C111.391 108.344 111.102 107.734 110.945 107.07C110.859 106.688 110.816 106.242 110.816 105.734C110.816 105.016 110.895 104.324 111.051 103.66C111.465 102.16 112.172 100.965 113.172 100.074C114.172 99.1758 115.254 98.7266 116.418 98.7266C116.926 98.7266 117.434 98.8242 117.941 99.0195C118.113 99.0977 118.262 99.1367 118.387 99.1367C118.52 99.1367 118.684 99.0898 118.879 98.9961C119.223 98.8555 119.566 98.7852 119.91 98.7852C120.301 98.7852 120.668 98.8711 121.012 99.043C121.355 99.207 121.645 99.4492 121.879 99.7695C122.074 100.02 122.238 100.352 122.371 100.766C122.512 101.18 122.652 101.812 122.793 102.664C122.941 103.516 123.121 104.723 123.332 106.285C123.73 109.09 123.93 111.219 123.93 112.672C123.93 114.445 123.586 116.406 122.898 118.555C122.391 120.148 121.793 121.602 121.105 122.914C120.418 124.227 119.734 125.172 119.055 125.75C118.328 126.312 117.629 126.594 116.957 126.594ZM116.137 106.156C116.473 106.156 116.867 106.055 117.32 105.852C117.492 105.758 117.641 105.668 117.766 105.582C117.898 105.496 117.973 105.434 117.988 105.395C118.012 105.348 118.023 105.273 118.023 105.172C118.023 105.016 118.004 104.809 117.965 104.551L117.859 103.883C117.266 103.812 116.832 103.734 116.559 103.648L116.453 103.625C116.383 103.625 116.316 103.66 116.254 103.73C116.191 103.801 116.109 103.922 116.008 104.094C115.883 104.312 115.781 104.574 115.703 104.879C115.633 105.184 115.598 105.449 115.598 105.676C115.598 105.793 115.609 105.891 115.633 105.969C115.711 106.094 115.879 106.156 116.137 106.156ZM138.438 121.039C138.18 121.039 137.898 120.965 137.594 120.816C137 120.566 136.531 120.145 136.188 119.551C135.844 118.957 135.582 118.055 135.402 116.844C135.09 114.688 134.934 111.461 134.934 107.164C134.934 106.289 134.965 103.875 135.027 99.9219H134.348C133.418 99.8906 132.695 99.5273 132.18 98.832C132.031 98.6367 131.938 98.4609 131.898 98.3047C131.852 98.1484 131.828 97.9141 131.828 97.6016C131.828 97.2812 131.852 97.0469 131.898 96.8984C131.938 96.7422 132.031 96.5625 132.18 96.3594C132.672 95.6562 133.508 95.2812 134.688 95.2344C134.883 95.2344 135.027 95.207 135.121 95.1523C135.215 95.0898 135.281 94.9375 135.32 94.6953C135.367 94.4453 135.418 94.0391 135.473 93.4766L135.555 92.7383C135.695 91.3555 135.879 90.3477 136.105 89.7148C136.332 89.0742 136.664 88.6133 137.102 88.332C137.258 88.2148 137.418 88.1406 137.582 88.1094C137.754 88.0703 138.008 88.0508 138.344 88.0508C138.703 88.0508 138.965 88.0703 139.129 88.1094C139.293 88.1484 139.469 88.2344 139.656 88.3672C139.961 88.5781 140.203 88.8633 140.383 89.2227C140.453 89.3633 140.504 89.5039 140.535 89.6445C140.574 89.7773 140.594 89.9531 140.594 90.1719C140.594 90.6328 140.512 91.4609 140.348 92.6562C140.191 93.9453 140.094 94.7891 140.055 95.1875L140.559 95.375C140.895 95.5078 141.195 95.7227 141.461 96.0195C141.82 96.4102 142 96.8164 142 97.2383C142 97.6523 141.859 98.0508 141.578 98.4336C141.305 98.8086 140.926 99.1172 140.441 99.3594L139.797 99.6758V99.7461C139.703 102.66 139.656 105.137 139.656 107.176C139.656 108.957 139.68 110.664 139.727 112.297C139.773 113.922 139.836 115.074 139.914 115.754C139.984 116.355 140.129 117.043 140.348 117.816C140.512 118.395 140.594 118.781 140.594 118.977C140.594 119.148 140.562 119.32 140.5 119.492C140.273 120.203 139.82 120.676 139.141 120.91C138.875 120.996 138.641 121.039 138.438 121.039ZM151.457 116.855C151.277 116.855 151.066 116.805 150.824 116.703C149.887 116.406 149.297 115.703 149.055 114.594C148.938 114.117 148.84 113.332 148.762 112.238C148.684 111.145 148.637 110.016 148.621 108.852C148.613 107.688 148.586 106.945 148.539 106.625L148.457 106.098L147.262 107.867C147.246 108.453 147.23 109.035 147.215 109.613C147.207 110.184 147.195 110.602 147.18 110.867C147.164 111.133 147.129 111.328 147.074 111.453C147.027 111.578 146.945 111.715 146.828 111.863C146.594 112.191 146.309 112.441 145.973 112.613C145.645 112.785 145.301 112.871 144.941 112.871C144.418 112.871 143.918 112.68 143.441 112.297C143.152 112.062 142.93 111.773 142.773 111.43C142.617 111.086 142.508 110.551 142.445 109.824C142.391 109.098 142.363 108.016 142.363 106.578C142.363 105.664 142.371 104.574 142.387 103.309C142.465 97.7773 142.645 93.3398 142.926 89.9961C142.98 89.2617 143.094 88.7031 143.266 88.3203C143.438 87.9297 143.703 87.625 144.062 87.4062C144.516 87.125 144.961 86.9844 145.398 86.9844C145.914 86.9844 146.398 87.1758 146.852 87.5586C147.367 88.0039 147.672 88.6758 147.766 89.5742C147.781 89.707 147.789 89.9727 147.789 90.3711C147.789 92.3555 147.676 95.707 147.449 100.426L147.695 100.297C148.141 100.062 148.527 99.8828 148.855 99.7578C149.191 99.6328 149.586 99.5703 150.039 99.5703C150.68 99.5703 151.254 99.75 151.762 100.109C152.277 100.469 152.672 100.992 152.945 101.68C153.008 101.836 153.059 101.996 153.098 102.16C153.137 102.324 153.168 102.555 153.191 102.852C153.223 103.305 153.262 104.465 153.309 106.332C153.387 109.145 153.461 111.242 153.531 112.625C153.586 113.523 153.613 114.164 153.613 114.547C153.613 114.797 153.598 114.98 153.566 115.098C153.543 115.223 153.5 115.352 153.438 115.484C153.18 116.086 152.746 116.488 152.137 116.691C151.863 116.801 151.637 116.855 151.457 116.855ZM162.379 113.691C161.723 113.691 161.137 113.641 160.621 113.539C159.223 113.211 158.012 112.512 156.988 111.441C155.965 110.371 155.211 109.016 154.727 107.375C154.648 107.117 154.59 106.871 154.551 106.637C154.512 106.402 154.484 106.117 154.469 105.781C154.461 105.438 154.457 104.961 154.457 104.352C154.457 103.703 154.461 103.211 154.469 102.875C154.484 102.531 154.516 102.234 154.562 101.984C154.609 101.734 154.68 101.441 154.773 101.105C155.805 97.5352 157.695 95.2539 160.445 94.2617C161.023 94.082 161.645 93.9922 162.309 93.9922C162.965 93.9922 163.555 94.0781 164.078 94.25C165.453 94.7812 166.402 95.7695 166.926 97.2148C167.074 97.7227 167.148 98.3125 167.148 98.9844C167.148 99.7344 167.059 100.418 166.879 101.035C166.254 102.77 165.062 104.387 163.305 105.887C162.219 106.84 161.316 107.316 160.598 107.316C160.457 107.316 160.336 107.328 160.234 107.352C160.141 107.375 160.094 107.406 160.094 107.445C160.094 107.531 160.188 107.68 160.375 107.891C160.57 108.094 160.785 108.289 161.02 108.477C161.254 108.664 161.445 108.781 161.594 108.828C161.914 108.914 162.246 108.957 162.59 108.957C163.16 108.957 163.688 108.855 164.172 108.652C164.703 108.402 165.184 108.277 165.613 108.277C166.113 108.277 166.566 108.449 166.973 108.793C167.449 109.168 167.688 109.695 167.688 110.375C167.688 111.047 167.445 111.648 166.961 112.18C166.477 112.711 165.82 113.113 164.992 113.387C164.227 113.59 163.355 113.691 162.379 113.691ZM159.613 102.594C159.77 102.594 160.191 102.254 160.879 101.574C161.91 100.559 162.426 99.7695 162.426 99.207C162.426 98.918 162.367 98.7734 162.25 98.7734C162.148 98.7734 161.992 98.8242 161.781 98.9258C160.938 99.3477 160.254 100.277 159.73 101.715C159.598 102.082 159.531 102.336 159.531 102.477C159.531 102.555 159.559 102.594 159.613 102.594ZM180.66 114.289C180.324 114.289 180 114.215 179.688 114.066C179.07 113.723 178.609 113.191 178.305 112.473C178.234 112.285 178.16 112.148 178.082 112.062C178.012 111.977 177.922 111.922 177.812 111.898C177.312 111.773 176.887 111.523 176.535 111.148C176.184 110.766 175.961 110.312 175.867 109.789C175.859 109.727 175.855 109.66 175.855 109.59C175.855 109.246 175.953 108.898 176.148 108.547C176.344 108.195 176.59 107.93 176.887 107.75L177.344 107.492L177.309 107.152C177.285 106.902 177.246 106.691 177.191 106.52C177.145 106.34 177.035 106.16 176.863 105.98C176.645 105.746 176.492 105.516 176.406 105.289C176.328 105.062 176.289 104.793 176.289 104.48C176.289 104.012 176.371 103.555 176.535 103.109C176.605 102.953 176.656 102.816 176.688 102.699C176.719 102.574 176.734 102.402 176.734 102.184C176.734 101.871 176.707 101.359 176.652 100.648C176.566 99.3359 176.492 97.7969 176.43 96.0312C176.375 94.2578 176.348 92.8125 176.348 91.6953C176.348 90.9297 176.363 90.4531 176.395 90.2656C176.566 89.625 176.902 89.1172 177.402 88.7422C177.566 88.6094 177.734 88.5156 177.906 88.4609C178.086 88.4062 178.402 88.3711 178.855 88.3555C179.66 88.3555 180.262 88.6406 180.66 89.2109C180.848 89.4375 180.988 89.7109 181.082 90.0312C181.184 90.3438 181.254 90.8516 181.293 91.5547C181.34 92.25 181.379 93.293 181.41 94.6836C181.449 95.8086 181.484 96.793 181.516 97.6367C181.547 98.4727 181.57 98.9727 181.586 99.1367C181.609 99.3008 181.633 99.4688 181.656 99.6406H182.441C183.605 99.6406 184.664 99.918 185.617 100.473C186.57 101.027 187.293 101.789 187.785 102.758C187.918 103.031 188.016 103.254 188.078 103.426C188.141 103.59 188.18 103.77 188.195 103.965C188.211 104.152 188.219 104.434 188.219 104.809C188.219 105.176 188.211 105.457 188.195 105.652C188.18 105.848 188.141 106.031 188.078 106.203C188.023 106.367 187.93 106.582 187.797 106.848C187.43 107.629 186.973 108.277 186.426 108.793C185.879 109.309 185.109 109.809 184.117 110.293L182.887 110.914C182.895 111.156 182.898 111.32 182.898 111.406C182.906 111.484 182.91 111.566 182.91 111.652C182.91 111.73 182.91 111.863 182.91 112.051C182.91 112.48 182.844 112.82 182.711 113.07C182.578 113.32 182.324 113.586 181.949 113.867C181.574 114.148 181.145 114.289 180.66 114.289ZM182.195 105.898C182.273 105.898 182.426 105.824 182.652 105.676C182.84 105.559 183.008 105.418 183.156 105.254C183.312 105.082 183.391 104.949 183.391 104.855C183.391 104.809 183.336 104.766 183.227 104.727C183.117 104.68 182.984 104.641 182.828 104.609C182.68 104.578 182.543 104.562 182.418 104.562C182.27 104.562 182.152 104.594 182.066 104.656C182.027 104.68 182.008 104.727 182.008 104.797L182.043 105.008C182.09 105.273 182.113 105.488 182.113 105.652C182.113 105.816 182.141 105.898 182.195 105.898ZM194.312 111.242C193.812 111.242 193.426 111.199 193.152 111.113C191.285 110.527 190.023 109.203 189.367 107.141C189.234 106.641 189.168 106.062 189.168 105.406C189.168 103.664 189.602 102.117 190.469 100.766C190.914 100.07 191.379 99.6172 191.863 99.4062C191.996 99.3594 192.098 99.2891 192.168 99.1953C192.238 99.0938 192.297 98.9375 192.344 98.7266C192.5 98.1484 192.785 97.707 193.199 97.4023C193.613 97.0977 194.07 96.9453 194.57 96.9453C194.93 96.9453 195.285 97.0273 195.637 97.1914C195.988 97.3477 196.312 97.5938 196.609 97.9297C196.781 98.1406 197.012 98.5156 197.301 99.0547C197.59 99.5859 197.875 100.156 198.156 100.766C198.438 101.375 198.648 101.898 198.789 102.336C199.125 103.398 199.293 104.41 199.293 105.371C199.293 106.582 199.039 107.664 198.531 108.617C198.031 109.57 197.305 110.289 196.352 110.773C196 110.953 195.707 111.074 195.473 111.137C195.238 111.191 194.941 111.223 194.582 111.23L194.312 111.242ZM194.277 106.438C194.402 106.438 194.488 106.176 194.535 105.652L194.547 105.418C194.547 105.02 194.512 104.664 194.441 104.352C194.379 103.977 194.32 103.789 194.266 103.789C194.234 103.789 194.203 103.824 194.172 103.895C194.117 104.012 194.074 104.215 194.043 104.504C194.012 104.793 193.996 105.086 193.996 105.383C193.996 105.844 194.027 106.137 194.09 106.262C194.16 106.379 194.223 106.438 194.277 106.438ZM204.344 121.039C204.086 121.039 203.805 120.965 203.5 120.816C202.906 120.566 202.438 120.145 202.094 119.551C201.75 118.957 201.488 118.055 201.309 116.844C200.996 114.688 200.84 111.461 200.84 107.164C200.84 106.289 200.871 103.875 200.934 99.9219H200.254C199.324 99.8906 198.602 99.5273 198.086 98.832C197.938 98.6367 197.844 98.4609 197.805 98.3047C197.758 98.1484 197.734 97.9141 197.734 97.6016C197.734 97.2812 197.758 97.0469 197.805 96.8984C197.844 96.7422 197.938 96.5625 198.086 96.3594C198.578 95.6562 199.414 95.2812 200.594 95.2344C200.789 95.2344 200.934 95.207 201.027 95.1523C201.121 95.0898 201.188 94.9375 201.227 94.6953C201.273 94.4453 201.324 94.0391 201.379 93.4766L201.461 92.7383C201.602 91.3555 201.785 90.3477 202.012 89.7148C202.238 89.0742 202.57 88.6133 203.008 88.332C203.164 88.2148 203.324 88.1406 203.488 88.1094C203.66 88.0703 203.914 88.0508 204.25 88.0508C204.609 88.0508 204.871 88.0703 205.035 88.1094C205.199 88.1484 205.375 88.2344 205.562 88.3672C205.867 88.5781 206.109 88.8633 206.289 89.2227C206.359 89.3633 206.41 89.5039 206.441 89.6445C206.48 89.7773 206.5 89.9531 206.5 90.1719C206.5 90.6328 206.418 91.4609 206.254 92.6562C206.098 93.9453 206 94.7891 205.961 95.1875L206.465 95.375C206.801 95.5078 207.102 95.7227 207.367 96.0195C207.727 96.4102 207.906 96.8164 207.906 97.2383C207.906 97.6523 207.766 98.0508 207.484 98.4336C207.211 98.8086 206.832 99.1172 206.348 99.3594L205.703 99.6758V99.7461C205.609 102.66 205.562 105.137 205.562 107.176C205.562 108.957 205.586 110.664 205.633 112.297C205.68 113.922 205.742 115.074 205.82 115.754C205.891 116.355 206.035 117.043 206.254 117.816C206.418 118.395 206.5 118.781 206.5 118.977C206.5 119.148 206.469 119.32 206.406 119.492C206.18 120.203 205.727 120.676 205.047 120.91C204.781 120.996 204.547 121.039 204.344 121.039Z" fill="white"/>
</svg>
