<svg width="112" height="197" viewBox="0 0 112 197" fill="none" xmlns="http://www.w3.org/2000/svg">
<path d="M5 56C5 27.8335 27.8335 5 56 5V5C84.1665 5 107 27.8335 107 56V139.078H5V56Z" stroke="#EAEAEA" stroke-opacity="0.92" stroke-width="10"/>
<path d="M5.5 57H108" stroke="#EAEAEA" stroke-opacity="0.92" stroke-width="10"/>
<path d="M5 139H107V191.261H5V139Z" stroke="#EAEAEA" stroke-opacity="0.92" stroke-width="10"/>
<circle cx="56.0001" cy="57.0812" r="36.9435" fill="#F7EB0E"/>
<path d="M92.9436 57.0812C92.9436 77.4845 76.4034 94.0246 56.0001 94.0246C35.5968 94.0246 19.0566 77.4845 19.0566 57.0812C19.0566 36.6778 35.5968 20.1377 56.0001 20.1377C76.4034 20.1377 92.9436 36.6778 92.9436 57.0812ZM26.254 57.0812C26.254 73.5095 39.5718 86.8272 56.0001 86.8272C72.4284 86.8272 85.7462 73.5095 85.7462 57.0812C85.7462 40.6528 72.4284 27.3351 56.0001 27.3351C39.5718 27.3351 26.254 40.6528 26.254 57.0812Z" fill="black"/>
<rect x="47.1697" y="51.1343" width="18.0212" height="72.4452" rx="9.0106" fill="black"/>
<circle cx="56.1802" cy="57.9824" r="12.2544" fill="black"/>
<circle cx="56.1801" cy="114.028" r="7.02827" fill="#F7EB0E"/>
</svg>
