<svg width="271" height="156" viewBox="0 0 271 156" fill="none" xmlns="http://www.w3.org/2000/svg">
<path d="M124.828 149.611C133.987 149.611 143.128 149.088 152.229 148.265C169.451 146.608 186.536 143.42 203.098 138.439C211.412 136.036 219.503 133.129 227.187 129.467C234.831 125.765 242.097 121.298 248.148 115.611C248.76 115.029 249.362 114.438 249.935 113.818L251.558 111.89L251.451 111.987C254.792 108.314 257.628 104.206 259.736 99.7781C261.854 95.3596 263.272 90.6021 263.981 85.6991C265.321 75.8739 263.864 65.6707 260.3 56.3106C258.211 50.8941 255.394 45.7587 251.946 41.1077C248.507 36.4664 244.37 32.2418 239.863 28.5307C230.8 21.0891 220.077 15.663 208.78 12.0294C197.464 8.36671 185.585 6.59342 173.579 6.10894C161.573 5.61477 149.48 6.38038 137.416 7.69816C129.869 8.47333 117.086 10.5662 116.979 8.36668C116.931 7.22331 118.99 5.9637 122.749 4.7622C126.498 3.56069 131.938 2.42707 138.621 1.67128C154.784 -0.121287 171.306 -0.80935 187.644 1.32235C195.822 2.32038 203.884 4.18082 211.723 6.70011C215.618 8.03727 219.494 9.44214 223.233 11.1863C225.128 11.9905 226.944 12.9692 228.799 13.8703C229.712 14.3451 230.606 14.8684 231.509 15.3625C232.413 15.8567 233.316 16.3606 234.18 16.9129C244.506 23.1433 253.733 31.4958 260.28 41.883C266.788 52.212 270.605 64.2368 270.974 76.5134C271.149 82.6469 270.431 88.8384 268.672 94.7684C266.924 100.708 264.097 106.338 260.484 111.318C256.871 116.318 252.48 120.698 247.672 124.438C242.874 128.188 237.687 131.356 232.325 134.098C222.699 139.04 212.51 142.567 202.282 145.493C192.034 148.439 181.612 150.765 171.092 152.47C150.053 155.881 128.616 156.811 107.353 155.299C97.368 154.582 87.4118 153.361 77.5528 151.569C67.6355 149.757 57.8348 147.102 48.3934 143.333C43.6727 141.463 39.0492 139.273 34.5907 136.744C30.1226 134.234 25.839 131.337 21.8468 128.033C17.8352 124.748 14.1831 120.969 11.0068 116.783C7.84024 112.588 5.24678 107.917 3.35268 102.976C0.118138 94.4489 -0.833821 84.9336 0.749453 75.9902C2.22588 66.9983 5.92666 58.5682 10.8902 51.1557C15.912 43.7626 22.216 37.29 29.4621 32.1158C33.0852 29.5287 36.9317 27.2614 40.9724 25.3622C41.9826 24.8971 43.0122 24.4513 44.0321 24.0152L47.1403 22.8525C49.1899 22.0192 51.3268 21.4574 53.4346 20.7985C61.4384 18.4536 70.1901 17.4264 77.9899 16.3703L77.8539 16.3412C79.0583 16.4381 80.2725 16.4961 81.5158 16.5155C82.7494 16.5543 84.0025 16.6028 85.2749 16.6416C87.8101 16.6416 90.3744 16.8063 92.9485 16.8935C98.0577 17.2521 103.167 17.8236 107.518 19.4612H107.528C108.315 19.6259 109.102 19.7906 109.889 19.9554L112.229 20.5368C113.793 20.905 115.338 21.2731 116.853 21.6316C123.817 23.182 128.062 24.7614 129.937 25.837C131.811 26.9319 131.287 27.6296 128.664 28.0947C127.508 28.2982 128.422 29.3542 125.1 28.676C125.09 28.676 124.866 28.5598 124.866 28.5598L124.944 28.6275C120.185 28.0945 115.105 26.8834 109.859 25.7982C104.624 24.7227 99.233 23.5696 94.0363 23.1045C81.3216 21.8739 68.4126 22.4456 56.2029 25.8079L51.6862 27.2128C50.1806 27.6973 48.7333 28.3271 47.2569 28.8697C44.3235 30.0131 41.5358 31.4086 38.8257 32.9686C33.4154 36.1177 28.4616 40.0516 24.0906 44.5379C19.7196 49.0242 15.98 54.1209 13.0466 59.6149C10.1034 65.0992 8.02477 71.0387 7.09229 77.1238C6.15009 83.1991 6.3541 89.4296 7.84996 95.3596C9.38466 101.299 11.9975 106.968 15.64 111.958C20.0596 118.13 25.8293 123.343 32.2304 127.674C38.6412 132.006 45.6736 135.484 52.9683 138.294C60.2728 141.104 67.8492 143.245 75.5421 144.825L78.4367 145.387L81.3605 145.881C83.3128 146.201 85.2555 146.559 87.2078 146.84C91.1223 147.363 95.0368 147.926 98.9707 148.274C107.577 149.117 116.231 149.369 124.993 149.592L124.828 149.611Z" fill="white"/>
</svg>
